{"title":"Naruto Shippuuden - 349 [720p] [ENG-SUBBED] [GWC].mkv","uid":9576794,"size":88512906,"categoryP":"video","categoryS":"tv_shows","magnet":"?xt=urn:btih:1e826fb00b0769bba3a7ea7f5089d033d20311a9&amp;dn=Naruto+Shippuuden+-+349+%5B720p%5D+%5BENG-SUBBED%5D+%5BGWC%5D.mkv&amp;tr=udp%3A%2F%2Ftracker.openbittorrent.com%3A80&amp;tr=udp%3A%2F%2Fopen.demonii.com%3A1337&amp;tr=udp%3A%2F%2Ftracker.coppersurfer.tk%3A6969&amp;tr=udp%3A%2F%2Fexodus.desync.com%3A6969","seeders":1,"leechers":0,"uploader":"canc232","files":1,"time":1391711516,"description":"Naruto Shippuuden - 349 [720p] [ENG-SUBBED] [GWC]\nNaruto Shippuuden Ep 349 : A Mask That Hides The Heart\n\nThe story revolves mainly around Uzumaki Naruto's and Haruno Sakura's new adventures and their search for Uchiha Sasuke after he left Konoha-gakure (Leaf Village) to gain Orochimaru's power. The plot also shows a more active Akatsuki in their quest for obtaining all the tailed beasts.\n\nAfter his failed attempt to retrieve Sasuke, Naruto learns that circumstances have granted him slightly less than three years to prepare for a confrontation with Orochimaru, who has to wait that much time before he can transfer into Sasuke's body. Naruto also must prepare for his eventual confrontation with Akatsuki, who are after the demon sealed within him. To prepare, Naruto leaves the village and undergoes intensive training under Jiraiya. At the same time, Sakura becomes Tsunade's apprentice, and Sasuke trains under Orochimaru. Thus, all three members of the original Team 7 are now training under one of the Legendary Sannin. \n\n\n\nTHUMBNAIL IMAGE : &lt;a href=&quot;\nhttp://img838.imageshack.us/img838/651/phzw.jpg&quot; rel=&quot;nofollow&quot; target=&quot;_NEW&quot;&gt;\nhttp://img838.imageshack.us/img838/651/phzw.jpg&lt;/a&gt;\n\n\n\nMEDIA INFO :\nGeneral \nFormat : Matroska \nFile size : 84.4 MiB \nDuration : 21mn 43s \nOverall bit rate mode : Variable \nOverall bit rate : 543 Kbps \nWriting application : mkvmerge v6.7.0 ('Back to the Ground') \n\nVideo \nFormat : AVC \nFormat profile : &lt;a class=&quot;__cf_email__&quot; href=&quot;/cdn-cgi/l/email-protection&quot; data-cfemail=&quot;abe3c2ccc3ebe79f859a&quot;&gt;[email&amp;#160;protected]&lt;/a&gt;&lt;script cf-hash='f9e31' type=&quot;text/javascript&quot;&gt;\n/* &lt;![CDATA[ */!function(){try{var t=&quot;currentScript&quot;in document?document.currentScript:function(){for(var t=document.getElementsByTagName(&quot;script&quot;),e=t.length;e--;)if(t[e].getAttribute(&quot;cf-hash&quot;))return t[e]}();if(t&amp;&amp;t.previousSibling){var e,r,n,i,c=t.previousSibling,a=c.getAttribute(&quot;data-cfemail&quot;);if(a){for(e=&quot;&quot;,r=parseInt(a.substr(0,2),16),n=2;a.length-n;n+=2)i=parseInt(a.substr(n,2),16)^r,e+=String.fromCharCode(i);e=document.createTextNode(e),c.parentNode.replaceChild(e,c)}}}catch(u){}}();/* ]]&gt; */&lt;/script&gt; \nFormat settings, CABAC : Yes \nFormat settings, ReFrames : 11 frames \nCodec ID : V_MPEG4/ISO/AVC \nDuration : 21mn 43s \nBit rate : 500 Kbps \nWidth : 1 280 pixels \nHeight : 720 pixels \nDisplay aspect ratio : 16:9 \nFrame rate mode : Constant \nFrame rate : 23.976 fps \nStream size : 74.0 MiB (88%) \nTitle : Naruto Shippuuden - 349 [720p] [ENG-SUBBED] [GWC] \nWriting library : x264 core\n\nAudio \nFormat : Vorbis \nDuration : 21mn 43s \nBit rate mode : Variable \nChannel(s) : 2 channels \nSampling rate : 44.1 KHz \nStream size : 8.70 MiB (10%) \nWriting library : aoTuV \n\nText \nFormat : UTF-8 \nTitle : [GWC] \nLanguage : English ","torrent":{"xt":"urn:btih:1e826fb00b0769bba3a7ea7f5089d033d20311a9","amp;dn":"Naruto+Shippuuden+-+349+%5B720p%5D+%5BENG-SUBBED%5D+%5BGWC%5D.mkv","amp;tr":["udp%3A%2F%2Ftracker.openbittorrent.com%3A80","udp%3A%2F%2Fopen.demonii.com%3A1337","udp%3A%2F%2Ftracker.coppersurfer.tk%3A6969","udp%3A%2F%2Fexodus.desync.com%3A6969"],"infoHash":"1e826fb00b0769bba3a7ea7f5089d033d20311a9","infoHashBuffer":{"type":"Buffer","data":[30,130,111,176,11,7,105,187,163,167,234,127,80,137,208,51,210,3,17,169]},"announce":[],"urlList":[]}}